<?xml version="1.0" encoding="utf-8" standalone="no"?>
<!DOCTYPE svg PUBLIC "-//W3C//DTD SVG 1.1//EN"
  "http://www.w3.org/Graphics/SVG/1.1/DTD/svg11.dtd">
<svg xmlns:xlink="http://www.w3.org/1999/xlink" width="970.0992pt" height="339.3pt" viewBox="0 0 970.0992 339.3" xmlns="http://www.w3.org/2000/svg" version="1.1">
 <metadata>
  <rdf:RDF xmlns:dc="http://purl.org/dc/elements/1.1/" xmlns:cc="http://creativecommons.org/ns#" xmlns:rdf="http://www.w3.org/1999/02/22-rdf-syntax-ns#">
   <cc:Work>
    <dc:type rdf:resource="http://purl.org/dc/dcmitype/StillImage"/>
    <dc:date>2026-04-01T00:00:00Z</dc:date>
    <dc:format>image/svg+xml</dc:format>
    <dc:creator>
     <cc:Agent>
      <dc:title>experiment_11_toy_parity_signature_plot.py</dc:title>
     </cc:Agent>
    </dc:creator>
   </cc:Work>
  </rdf:RDF>
 </metadata>
 <defs>
  <style type="text/css">*{stroke-linejoin: round; stroke-linecap: butt}</style>
 </defs>
 <g id="figure_1">
  <g id="patch_1">
   <path d="M 0 339.3 
L 970.0992 339.3 
L 970.0992 0 
L 0 0 
z
" style="fill: #ffffff"/>
  </g>
  <g id="axes_1">
   <g id="patch_2">
    <path d="M 25.11936 309.357 
L 287.93664 309.357 
Q 299.88288 309.357 299.88288 296.361 
L 299.88288 36.441 
Q 299.88288 23.445 287.93664 23.445 
L 25.11936 23.445 
Q 13.17312 23.445 13.17312 36.441 
L 13.17312 296.361 
Q 13.17312 309.357 25.11936 309.357 
z
" clip-path="url(#pc34585f269)" style="fill: #fbfbfc; stroke: #c8d0da; stroke-width: 1.35; stroke-linejoin: miter"/>
   </g>
   <g id="text_1">
    <!-- Missing Support -->
    <g style="fill: #243247" transform="translate(60.257766 53.525156) scale(0.21 -0.21)">
     <defs>
      <path id="DejaVuSans-Bold-4d" d="M 588 4666 
L 2119 4666 
L 3181 2169 
L 4250 4666 
L 5778 4666 
L 5778 0 
L 4641 0 
L 4641 3413 
L 3566 897 
L 2803 897 
L 1728 3413 
L 1728 0 
L 588 0 
L 588 4666 
z
" transform="scale(0.015625)"/>
      <path id="DejaVuSans-Bold-69" d="M 538 3500 
L 1656 3500 
L 1656 0 
L 538 0 
L 538 3500 
z
M 538 4863 
L 1656 4863 
L 1656 3950 
L 538 3950 
L 538 4863 
z
" transform="scale(0.015625)"/>
      <path id="DejaVuSans-Bold-73" d="M 3272 3391 
L 3272 2541 
Q 2913 2691 2578 2766 
Q 2244 2841 1947 2841 
Q 1628 2841 1473 2761 
Q 1319 2681 1319 2516 
Q 1319 2381 1436 2309 
Q 1553 2238 1856 2203 
L 2053 2175 
Q 2913 2066 3209 1816 
Q 3506 1566 3506 1031 
Q 3506 472 3093 190 
Q 2681 -91 1863 -91 
Q 1516 -91 1145 -36 
Q 775 19 384 128 
L 384 978 
Q 719 816 1070 734 
Q 1422 653 1784 653 
Q 2113 653 2278 743 
Q 2444 834 2444 1013 
Q 2444 1163 2330 1236 
Q 2216 1309 1875 1350 
L 1678 1375 
Q 931 1469 631 1722 
Q 331 1975 331 2491 
Q 331 3047 712 3315 
Q 1094 3584 1881 3584 
Q 2191 3584 2531 3537 
Q 2872 3491 3272 3391 
z
" transform="scale(0.015625)"/>
      <path id="DejaVuSans-Bold-6e" d="M 4056 2131 
L 4056 0 
L 2931 0 
L 2931 347 
L 2931 1631 
Q 2931 2084 2911 2256 
Q 2891 2428 2841 2509 
Q 2775 2619 2662 2680 
Q 2550 2741 2406 2741 
Q 2056 2741 1856 2470 
Q 1656 2200 1656 1722 
L 1656 0 
L 538 0 
L 538 3500 
L 1656 3500 
L 1656 2988 
Q 1909 3294 2193 3439 
Q 2478 3584 2822 3584 
Q 3428 3584 3742 3212 
Q 4056 2841 4056 2131 
z
" transform="scale(0.015625)"/>
      <path id="DejaVuSans-Bold-67" d="M 2919 594 
Q 2688 288 2409 144 
Q 2131 0 1766 0 
Q 1125 0 706 504 
Q 288 1009 288 1791 
Q 288 2575 706 3076 
Q 1125 3578 1766 3578 
Q 2131 3578 2409 3434 
Q 2688 3291 2919 2981 
L 2919 3500 
L 4044 3500 
L 4044 353 
Q 4044 -491 3511 -936 
Q 2978 -1381 1966 -1381 
Q 1638 -1381 1331 -1331 
Q 1025 -1281 716 -1178 
L 716 -306 
Q 1009 -475 1290 -558 
Q 1572 -641 1856 -641 
Q 2406 -641 2662 -400 
Q 2919 -159 2919 353 
L 2919 594 
z
M 2181 2772 
Q 1834 2772 1640 2515 
Q 1447 2259 1447 1791 
Q 1447 1309 1634 1061 
Q 1822 813 2181 813 
Q 2531 813 2725 1069 
Q 2919 1325 2919 1791 
Q 2919 2259 2725 2515 
Q 2531 2772 2181 2772 
z
" transform="scale(0.015625)"/>
      <path id="DejaVuSans-Bold-20" transform="scale(0.015625)"/>
      <path id="DejaVuSans-Bold-53" d="M 3834 4519 
L 3834 3531 
Q 3450 3703 3084 3790 
Q 2719 3878 2394 3878 
Q 1963 3878 1756 3759 
Q 1550 3641 1550 3391 
Q 1550 3203 1689 3098 
Q 1828 2994 2194 2919 
L 2706 2816 
Q 3484 2659 3812 2340 
Q 4141 2022 4141 1434 
Q 4141 663 3683 286 
Q 3225 -91 2284 -91 
Q 1841 -91 1394 -6 
Q 947 78 500 244 
L 500 1259 
Q 947 1022 1364 901 
Q 1781 781 2169 781 
Q 2563 781 2772 912 
Q 2981 1044 2981 1288 
Q 2981 1506 2839 1625 
Q 2697 1744 2272 1838 
L 1806 1941 
Q 1106 2091 782 2419 
Q 459 2747 459 3303 
Q 459 4000 909 4375 
Q 1359 4750 2203 4750 
Q 2588 4750 2994 4692 
Q 3400 4634 3834 4519 
z
" transform="scale(0.015625)"/>
      <path id="DejaVuSans-Bold-75" d="M 500 1363 
L 500 3500 
L 1625 3500 
L 1625 3150 
Q 1625 2866 1622 2436 
Q 1619 2006 1619 1863 
Q 1619 1441 1641 1255 
Q 1663 1069 1716 984 
Q 1784 875 1895 815 
Q 2006 756 2150 756 
Q 2500 756 2700 1025 
Q 2900 1294 2900 1772 
L 2900 3500 
L 4019 3500 
L 4019 0 
L 2900 0 
L 2900 506 
Q 2647 200 2364 54 
Q 2081 -91 1741 -91 
Q 1134 -91 817 281 
Q 500 653 500 1363 
z
" transform="scale(0.015625)"/>
      <path id="DejaVuSans-Bold-70" d="M 1656 506 
L 1656 -1331 
L 538 -1331 
L 538 3500 
L 1656 3500 
L 1656 2988 
Q 1888 3294 2169 3439 
Q 2450 3584 2816 3584 
Q 3463 3584 3878 3070 
Q 4294 2556 4294 1747 
Q 4294 938 3878 423 
Q 3463 -91 2816 -91 
Q 2450 -91 2169 54 
Q 1888 200 1656 506 
z
M 2400 2772 
Q 2041 2772 1848 2508 
Q 1656 2244 1656 1747 
Q 1656 1250 1848 986 
Q 2041 722 2400 722 
Q 2759 722 2948 984 
Q 3138 1247 3138 1747 
Q 3138 2247 2948 2509 
Q 2759 2772 2400 2772 
z
" transform="scale(0.015625)"/>
      <path id="DejaVuSans-Bold-6f" d="M 2203 2784 
Q 1831 2784 1636 2517 
Q 1441 2250 1441 1747 
Q 1441 1244 1636 976 
Q 1831 709 2203 709 
Q 2569 709 2762 976 
Q 2956 1244 2956 1747 
Q 2956 2250 2762 2517 
Q 2569 2784 2203 2784 
z
M 2203 3584 
Q 3106 3584 3614 3096 
Q 4122 2609 4122 1747 
Q 4122 884 3614 396 
Q 3106 -91 2203 -91 
Q 1297 -91 786 396 
Q 275 884 275 1747 
Q 275 2609 786 3096 
Q 1297 3584 2203 3584 
z
" transform="scale(0.015625)"/>
      <path id="DejaVuSans-Bold-72" d="M 3138 2547 
Q 2991 2616 2845 2648 
Q 2700 2681 2553 2681 
Q 2122 2681 1889 2404 
Q 1656 2128 1656 1613 
L 1656 0 
L 538 0 
L 538 3500 
L 1656 3500 
L 1656 2925 
Q 1872 3269 2151 3426 
Q 2431 3584 2822 3584 
Q 2878 3584 2943 3579 
Q 3009 3575 3134 3559 
L 3138 2547 
z
" transform="scale(0.015625)"/>
      <path id="DejaVuSans-Bold-74" d="M 1759 4494 
L 1759 3500 
L 2913 3500 
L 2913 2700 
L 1759 2700 
L 1759 1216 
Q 1759 972 1856 886 
Q 1953 800 2241 800 
L 2816 800 
L 2816 0 
L 1856 0 
Q 1194 0 917 276 
Q 641 553 641 1216 
L 641 2700 
L 84 2700 
L 84 3500 
L 641 3500 
L 641 4494 
L 1759 4494 
z
" transform="scale(0.015625)"/>
     </defs>
     <use xlink:href="#DejaVuSans-Bold-4d"/>
     <use xlink:href="#DejaVuSans-Bold-69" transform="translate(99.511719 0)"/>
     <use xlink:href="#DejaVuSans-Bold-73" transform="translate(133.789062 0)"/>
     <use xlink:href="#DejaVuSans-Bold-73" transform="translate(193.310547 0)"/>
     <use xlink:href="#DejaVuSans-Bold-69" transform="translate(252.832031 0)"/>
     <use xlink:href="#DejaVuSans-Bold-6e" transform="translate(287.109375 0)"/>
     <use xlink:href="#DejaVuSans-Bold-67" transform="translate(358.300781 0)"/>
     <use xlink:href="#DejaVuSans-Bold-20" transform="translate(429.882812 0)"/>
     <use xlink:href="#DejaVuSans-Bold-53" transform="translate(464.697266 0)"/>
     <use xlink:href="#DejaVuSans-Bold-75" transform="translate(536.71875 0)"/>
     <use xlink:href="#DejaVuSans-Bold-70" transform="translate(607.910156 0)"/>
     <use xlink:href="#DejaVuSans-Bold-70" transform="translate(679.492188 0)"/>
     <use xlink:href="#DejaVuSans-Bold-6f" transform="translate(751.074219 0)"/>
     <use xlink:href="#DejaVuSans-Bold-72" transform="translate(819.775391 0)"/>
     <use xlink:href="#DejaVuSans-Bold-74" transform="translate(869.091797 0)"/>
    </g>
   </g>
   <g id="text_2">
    <!-- target -->
    <g style="fill: #243247" transform="translate(91.719648 106.286419) scale(0.141 -0.141)">
     <defs>
      <path id="DejaVuSans-74" d="M 1172 4494 
L 1172 3500 
L 2356 3500 
L 2356 3053 
L 1172 3053 
L 1172 1153 
Q 1172 725 1289 603 
Q 1406 481 1766 481 
L 2356 481 
L 2356 0 
L 1766 0 
Q 1100 0 847 248 
Q 594 497 594 1153 
L 594 3053 
L 172 3053 
L 172 3500 
L 594 3500 
L 594 4494 
L 1172 4494 
z
" transform="scale(0.015625)"/>
      <path id="DejaVuSans-61" d="M 2194 1759 
Q 1497 1759 1228 1600 
Q 959 1441 959 1056 
Q 959 750 1161 570 
Q 1363 391 1709 391 
Q 2188 391 2477 730 
Q 2766 1069 2766 1631 
L 2766 1759 
L 2194 1759 
z
M 3341 1997 
L 3341 0 
L 2766 0 
L 2766 531 
Q 2569 213 2275 61 
Q 1981 -91 1556 -91 
Q 1019 -91 701 211 
Q 384 513 384 1019 
Q 384 1609 779 1909 
Q 1175 2209 1959 2209 
L 2766 2209 
L 2766 2266 
Q 2766 2663 2505 2880 
Q 2244 3097 1772 3097 
Q 1472 3097 1187 3025 
Q 903 2953 641 2809 
L 641 3341 
Q 956 3463 1253 3523 
Q 1550 3584 1831 3584 
Q 2591 3584 2966 3190 
Q 3341 2797 3341 1997 
z
" transform="scale(0.015625)"/>
      <path id="DejaVuSans-72" d="M 2631 2963 
Q 2534 3019 2420 3045 
Q 2306 3072 2169 3072 
Q 1681 3072 1420 2755 
Q 1159 2438 1159 1844 
L 1159 0 
L 581 0 
L 581 3500 
L 1159 3500 
L 1159 2956 
Q 1341 3275 1631 3429 
Q 1922 3584 2338 3584 
Q 2397 3584 2469 3576 
Q 2541 3569 2628 3553 
L 2631 2963 
z
" transform="scale(0.015625)"/>
      <path id="DejaVuSans-67" d="M 2906 1791 
Q 2906 2416 2648 2759 
Q 2391 3103 1925 3103 
Q 1463 3103 1205 2759 
Q 947 2416 947 1791 
Q 947 1169 1205 825 
Q 1463 481 1925 481 
Q 2391 481 2648 825 
Q 2906 1169 2906 1791 
z
M 3481 434 
Q 3481 -459 3084 -895 
Q 2688 -1331 1869 -1331 
Q 1566 -1331 1297 -1286 
Q 1028 -1241 775 -1147 
L 775 -588 
Q 1028 -725 1275 -790 
Q 1522 -856 1778 -856 
Q 2344 -856 2625 -561 
Q 2906 -266 2906 331 
L 2906 616 
Q 2728 306 2450 153 
Q 2172 0 1784 0 
Q 1141 0 747 490 
Q 353 981 353 1791 
Q 353 2603 747 3093 
Q 1141 3584 1784 3584 
Q 2172 3584 2450 3431 
Q 2728 3278 2906 2969 
L 2906 3500 
L 3481 3500 
L 3481 434 
z
" transform="scale(0.015625)"/>
      <path id="DejaVuSans-65" d="M 3597 1894 
L 3597 1613 
L 953 1613 
Q 991 1019 1311 708 
Q 1631 397 2203 397 
Q 2534 397 2845 478 
Q 3156 559 3463 722 
L 3463 178 
Q 3153 47 2828 -22 
Q 2503 -91 2169 -91 
Q 1331 -91 842 396 
Q 353 884 353 1716 
Q 353 2575 817 3079 
Q 1281 3584 2069 3584 
Q 2775 3584 3186 3129 
Q 3597 2675 3597 1894 
z
M 3022 2063 
Q 3016 2534 2758 2815 
Q 2500 3097 2075 3097 
Q 1594 3097 1305 2825 
Q 1016 2553 972 2059 
L 3022 2063 
z
" transform="scale(0.015625)"/>
     </defs>
     <use xlink:href="#DejaVuSans-74"/>
     <use xlink:href="#DejaVuSans-61" transform="translate(39.208984 0)"/>
     <use xlink:href="#DejaVuSans-72" transform="translate(100.488281 0)"/>
     <use xlink:href="#DejaVuSans-67" transform="translate(139.851562 0)"/>
     <use xlink:href="#DejaVuSans-65" transform="translate(203.328125 0)"/>
     <use xlink:href="#DejaVuSans-74" transform="translate(264.851562 0)"/>
    </g>
   </g>
   <g id="text_3">
    <!-- train -->
    <g style="fill: #243247" transform="translate(202.222368 106.286419) scale(0.141 -0.141)">
     <defs>
      <path id="DejaVuSans-69" d="M 603 3500 
L 1178 3500 
L 1178 0 
L 603 0 
L 603 3500 
z
M 603 4863 
L 1178 4863 
L 1178 4134 
L 603 4134 
L 603 4863 
z
" transform="scale(0.015625)"/>
      <path id="DejaVuSans-6e" d="M 3513 2113 
L 3513 0 
L 2938 0 
L 2938 2094 
Q 2938 2591 2744 2837 
Q 2550 3084 2163 3084 
Q 1697 3084 1428 2787 
Q 1159 2491 1159 1978 
L 1159 0 
L 581 0 
L 581 3500 
L 1159 3500 
L 1159 2956 
Q 1366 3272 1645 3428 
Q 1925 3584 2291 3584 
Q 2894 3584 3203 3211 
Q 3513 2838 3513 2113 
z
" transform="scale(0.015625)"/>
     </defs>
     <use xlink:href="#DejaVuSans-74"/>
     <use xlink:href="#DejaVuSans-72" transform="translate(39.208984 0)"/>
     <use xlink:href="#DejaVuSans-61" transform="translate(80.322266 0)"/>
     <use xlink:href="#DejaVuSans-69" transform="translate(141.601562 0)"/>
     <use xlink:href="#DejaVuSans-6e" transform="translate(169.384766 0)"/>
    </g>
   </g>
   <g id="text_4">
    <!-- 1001 -->
    <g style="fill: #9c2f35" transform="translate(80.708355 242.845875) scale(0.18 -0.18)">
     <defs>
      <path id="DejaVuSans-Bold-31" d="M 750 831 
L 1813 831 
L 1813 3847 
L 722 3622 
L 722 4441 
L 1806 4666 
L 2950 4666 
L 2950 831 
L 4013 831 
L 4013 0 
L 750 0 
L 750 831 
z
" transform="scale(0.015625)"/>
      <path id="DejaVuSans-Bold-30" d="M 2944 2338 
Q 2944 3213 2780 3570 
Q 2616 3928 2228 3928 
Q 1841 3928 1675 3570 
Q 1509 3213 1509 2338 
Q 1509 1453 1675 1090 
Q 1841 728 2228 728 
Q 2613 728 2778 1090 
Q 2944 1453 2944 2338 
z
M 4147 2328 
Q 4147 1169 3647 539 
Q 3147 -91 2228 -91 
Q 1306 -91 806 539 
Q 306 1169 306 2328 
Q 306 3491 806 4120 
Q 1306 4750 2228 4750 
Q 3147 4750 3647 4120 
Q 4147 3491 4147 2328 
z
" transform="scale(0.015625)"/>
     </defs>
     <use xlink:href="#DejaVuSans-Bold-31"/>
     <use xlink:href="#DejaVuSans-Bold-30" transform="translate(69.580078 0)"/>
     <use xlink:href="#DejaVuSans-Bold-30" transform="translate(139.160156 0)"/>
     <use xlink:href="#DejaVuSans-Bold-31" transform="translate(208.740234 0)"/>
    </g>
   </g>
   <g id="text_5">
    <!-- unseen -->
    <g style="fill: #6c7585" transform="translate(85.666011 255.534812) scale(0.11 -0.11)">
     <defs>
      <path id="DejaVuSans-75" d="M 544 1381 
L 544 3500 
L 1119 3500 
L 1119 1403 
Q 1119 906 1312 657 
Q 1506 409 1894 409 
Q 2359 409 2629 706 
Q 2900 1003 2900 1516 
L 2900 3500 
L 3475 3500 
L 3475 0 
L 2900 0 
L 2900 538 
Q 2691 219 2414 64 
Q 2138 -91 1772 -91 
Q 1169 -91 856 284 
Q 544 659 544 1381 
z
M 1991 3584 
L 1991 3584 
z
" transform="scale(0.015625)"/>
      <path id="DejaVuSans-73" d="M 2834 3397 
L 2834 2853 
Q 2591 2978 2328 3040 
Q 2066 3103 1784 3103 
Q 1356 3103 1142 2972 
Q 928 2841 928 2578 
Q 928 2378 1081 2264 
Q 1234 2150 1697 2047 
L 1894 2003 
Q 2506 1872 2764 1633 
Q 3022 1394 3022 966 
Q 3022 478 2636 193 
Q 2250 -91 1575 -91 
Q 1294 -91 989 -36 
Q 684 19 347 128 
L 347 722 
Q 666 556 975 473 
Q 1284 391 1588 391 
Q 1994 391 2212 530 
Q 2431 669 2431 922 
Q 2431 1156 2273 1281 
Q 2116 1406 1581 1522 
L 1381 1569 
Q 847 1681 609 1914 
Q 372 2147 372 2553 
Q 372 3047 722 3315 
Q 1072 3584 1716 3584 
Q 2034 3584 2315 3537 
Q 2597 3491 2834 3397 
z
" transform="scale(0.015625)"/>
     </defs>
     <use xlink:href="#DejaVuSans-75"/>
     <use xlink:href="#DejaVuSans-6e" transform="translate(63.378906 0)"/>
     <use xlink:href="#DejaVuSans-73" transform="translate(126.757812 0)"/>
     <use xlink:href="#DejaVuSans-65" transform="translate(178.857422 0)"/>
     <use xlink:href="#DejaVuSans-65" transform="translate(240.380859 0)"/>
     <use xlink:href="#DejaVuSans-6e" transform="translate(301.904297 0)"/>
    </g>
   </g>
   <g id="text_6">
    <!-- 1100 -->
    <g style="fill: #243247" transform="translate(199.32732 242.845875) scale(0.18 -0.18)">
     <defs>
      <path id="DejaVuSans-31" d="M 794 531 
L 1825 531 
L 1825 4091 
L 703 3866 
L 703 4441 
L 1819 4666 
L 2450 4666 
L 2450 531 
L 3481 531 
L 3481 0 
L 794 0 
L 794 531 
z
" transform="scale(0.015625)"/>
      <path id="DejaVuSans-30" d="M 2034 4250 
Q 1547 4250 1301 3770 
Q 1056 3291 1056 2328 
Q 1056 1369 1301 889 
Q 1547 409 2034 409 
Q 2525 409 2770 889 
Q 3016 1369 3016 2328 
Q 3016 3291 2770 3770 
Q 2525 4250 2034 4250 
z
M 2034 4750 
Q 2819 4750 3233 4129 
Q 3647 3509 3647 2328 
Q 3647 1150 3233 529 
Q 2819 -91 2034 -91 
Q 1250 -91 836 529 
Q 422 1150 422 2328 
Q 422 3509 836 4129 
Q 1250 4750 2034 4750 
z
" transform="scale(0.015625)"/>
     </defs>
     <use xlink:href="#DejaVuSans-31"/>
     <use xlink:href="#DejaVuSans-31" transform="translate(63.623047 0)"/>
     <use xlink:href="#DejaVuSans-30" transform="translate(127.246094 0)"/>
     <use xlink:href="#DejaVuSans-30" transform="translate(190.869141 0)"/>
    </g>
   </g>
   <g id="text_7">
    <!-- seen -->
    <g style="fill: #6c7585" transform="translate(209.113101 255.534812) scale(0.11 -0.11)">
     <use xlink:href="#DejaVuSans-73"/>
     <use xlink:href="#DejaVuSans-65" transform="translate(52.099609 0)"/>
     <use xlink:href="#DejaVuSans-65" transform="translate(113.623047 0)"/>
     <use xlink:href="#DejaVuSans-6e" transform="translate(175.146484 0)"/>
    </g>
   </g>
   <g id="text_8">
    <!-- 1001 has zero train support -->
    <g style="fill: #9c2f35" transform="translate(38.452375 284.806937) scale(0.17 -0.17)">
     <defs>
      <path id="DejaVuSans-20" transform="scale(0.015625)"/>
      <path id="DejaVuSans-68" d="M 3513 2113 
L 3513 0 
L 2938 0 
L 2938 2094 
Q 2938 2591 2744 2837 
Q 2550 3084 2163 3084 
Q 1697 3084 1428 2787 
Q 1159 2491 1159 1978 
L 1159 0 
L 581 0 
L 581 4863 
L 1159 4863 
L 1159 2956 
Q 1366 3272 1645 3428 
Q 1925 3584 2291 3584 
Q 2894 3584 3203 3211 
Q 3513 2838 3513 2113 
z
" transform="scale(0.015625)"/>
      <path id="DejaVuSans-7a" d="M 353 3500 
L 3084 3500 
L 3084 2975 
L 922 459 
L 3084 459 
L 3084 0 
L 275 0 
L 275 525 
L 2438 3041 
L 353 3041 
L 353 3500 
z
" transform="scale(0.015625)"/>
      <path id="DejaVuSans-6f" d="M 1959 3097 
Q 1497 3097 1228 2736 
Q 959 2375 959 1747 
Q 959 1119 1226 758 
Q 1494 397 1959 397 
Q 2419 397 2687 759 
Q 2956 1122 2956 1747 
Q 2956 2369 2687 2733 
Q 2419 3097 1959 3097 
z
M 1959 3584 
Q 2709 3584 3137 3096 
Q 3566 2609 3566 1747 
Q 3566 888 3137 398 
Q 2709 -91 1959 -91 
Q 1206 -91 779 398 
Q 353 888 353 1747 
Q 353 2609 779 3096 
Q 1206 3584 1959 3584 
z
" transform="scale(0.015625)"/>
      <path id="DejaVuSans-70" d="M 1159 525 
L 1159 -1331 
L 581 -1331 
L 581 3500 
L 1159 3500 
L 1159 2969 
Q 1341 3281 1617 3432 
Q 1894 3584 2278 3584 
Q 2916 3584 3314 3078 
Q 3713 2572 3713 1747 
Q 3713 922 3314 415 
Q 2916 -91 2278 -91 
Q 1894 -91 1617 61 
Q 1341 213 1159 525 
z
M 3116 1747 
Q 3116 2381 2855 2742 
Q 2594 3103 2138 3103 
Q 1681 3103 1420 2742 
Q 1159 2381 1159 1747 
Q 1159 1113 1420 752 
Q 1681 391 2138 391 
Q 2594 391 2855 752 
Q 3116 1113 3116 1747 
z
" transform="scale(0.015625)"/>
     </defs>
     <use xlink:href="#DejaVuSans-31"/>
     <use xlink:href="#DejaVuSans-30" transform="translate(63.623047 0)"/>
     <use xlink:href="#DejaVuSans-30" transform="translate(127.246094 0)"/>
     <use xlink:href="#DejaVuSans-31" transform="translate(190.869141 0)"/>
     <use xlink:href="#DejaVuSans-20" transform="translate(254.492188 0)"/>
     <use xlink:href="#DejaVuSans-68" transform="translate(286.279297 0)"/>
     <use xlink:href="#DejaVuSans-61" transform="translate(349.658203 0)"/>
     <use xlink:href="#DejaVuSans-73" transform="translate(410.9375 0)"/>
     <use xlink:href="#DejaVuSans-20" transform="translate(463.037109 0)"/>
     <use xlink:href="#DejaVuSans-7a" transform="translate(494.824219 0)"/>
     <use xlink:href="#DejaVuSans-65" transform="translate(547.314453 0)"/>
     <use xlink:href="#DejaVuSans-72" transform="translate(608.837891 0)"/>
     <use xlink:href="#DejaVuSans-6f" transform="translate(647.701172 0)"/>
     <use xlink:href="#DejaVuSans-20" transform="translate(708.882812 0)"/>
     <use xlink:href="#DejaVuSans-74" transform="translate(740.669922 0)"/>
     <use xlink:href="#DejaVuSans-72" transform="translate(779.878906 0)"/>
     <use xlink:href="#DejaVuSans-61" transform="translate(820.992188 0)"/>
     <use xlink:href="#DejaVuSans-69" transform="translate(882.271484 0)"/>
     <use xlink:href="#DejaVuSans-6e" transform="translate(910.054688 0)"/>
     <use xlink:href="#DejaVuSans-20" transform="translate(973.433594 0)"/>
     <use xlink:href="#DejaVuSans-73" transform="translate(1005.220703 0)"/>
     <use xlink:href="#DejaVuSans-75" transform="translate(1057.320312 0)"/>
     <use xlink:href="#DejaVuSans-70" transform="translate(1120.699219 0)"/>
     <use xlink:href="#DejaVuSans-70" transform="translate(1184.175781 0)"/>
     <use xlink:href="#DejaVuSans-6f" transform="translate(1247.652344 0)"/>
     <use xlink:href="#DejaVuSans-72" transform="translate(1308.833984 0)"/>
     <use xlink:href="#DejaVuSans-74" transform="translate(1349.947266 0)"/>
    </g>
   </g>
   <g id="patch_3">
    <path d="M 178.9272 107.2692 
L 196.249248 107.2692 
L 196.249248 97.5222 
L 178.9272 97.5222 
z
" clip-path="url(#pc34585f269)" style="fill: #8f9299; stroke: #6e7178; stroke-width: 1.2; stroke-linejoin: miter"/>
   </g>
   <g id="patch_4">
    <path d="M 107.24976 221.634 
L 131.14224 221.634 
L 131.14224 219.3597 
L 107.24976 219.3597 
z
" clip-path="url(#pc34585f269)" style="fill: #8f9299; stroke: #6e7178; stroke-width: 1.2; stroke-linejoin: miter"/>
   </g>
   <g id="patch_5">
    <path d="M 223.7256 221.634 
L 247.61808 221.634 
L 247.61808 133.911 
L 223.7256 133.911 
z
" clip-path="url(#pc34585f269)" style="fill: #8f9299; stroke: #6e7178; stroke-width: 1.2; stroke-linejoin: miter"/>
   </g>
   <g id="patch_6">
    <path d="M 68.42448 107.2692 
L 85.746528 107.2692 
L 85.746528 97.5222 
L 68.42448 97.5222 
L 68.42448 107.2692 
z
" clip-path="url(#pc34585f269)" style="fill: none; stroke: #252525; stroke-width: 2; stroke-linejoin: miter"/>
   </g>
   <g id="patch_7">
    <path d="M 80.37072 221.634 
L 104.2632 221.634 
L 104.2632 133.911 
L 80.37072 133.911 
L 80.37072 221.634 
z
" clip-path="url(#pc34585f269)" style="fill: none; stroke: #252525; stroke-width: 2.45; stroke-linejoin: miter"/>
   </g>
   <g id="patch_8">
    <path d="M 196.84656 221.634 
L 220.73904 221.634 
L 220.73904 133.911 
L 196.84656 133.911 
L 196.84656 221.634 
z
" clip-path="url(#pc34585f269)" style="fill: none; stroke: #252525; stroke-width: 2.45; stroke-linejoin: miter"/>
   </g>
  </g>
  <g id="axes_2">
   <g id="patch_9">
    <path d="M 353.64096 309.357 
L 616.45824 309.357 
Q 628.40448 309.357 628.40448 296.361 
L 628.40448 36.441 
Q 628.40448 23.445 616.45824 23.445 
L 353.64096 23.445 
Q 341.69472 23.445 341.69472 36.441 
L 341.69472 296.361 
Q 341.69472 309.357 353.64096 309.357 
z
" clip-path="url(#pb458bef0e5)" style="fill: #fbfbfc; stroke: #c8d0da; stroke-width: 1.35; stroke-linejoin: miter"/>
   </g>
   <g id="text_9">
    <!-- Shared parity cue -->
    <g style="fill: #243247" transform="translate(374.723038 53.797187) scale(0.22 -0.22)">
     <defs>
      <path id="DejaVuSans-Bold-68" d="M 4056 2131 
L 4056 0 
L 2931 0 
L 2931 347 
L 2931 1625 
Q 2931 2084 2911 2256 
Q 2891 2428 2841 2509 
Q 2775 2619 2662 2680 
Q 2550 2741 2406 2741 
Q 2056 2741 1856 2470 
Q 1656 2200 1656 1722 
L 1656 0 
L 538 0 
L 538 4863 
L 1656 4863 
L 1656 2988 
Q 1909 3294 2193 3439 
Q 2478 3584 2822 3584 
Q 3428 3584 3742 3212 
Q 4056 2841 4056 2131 
z
" transform="scale(0.015625)"/>
      <path id="DejaVuSans-Bold-61" d="M 2106 1575 
Q 1756 1575 1579 1456 
Q 1403 1338 1403 1106 
Q 1403 894 1545 773 
Q 1688 653 1941 653 
Q 2256 653 2472 879 
Q 2688 1106 2688 1447 
L 2688 1575 
L 2106 1575 
z
M 3816 1997 
L 3816 0 
L 2688 0 
L 2688 519 
Q 2463 200 2181 54 
Q 1900 -91 1497 -91 
Q 953 -91 614 226 
Q 275 544 275 1050 
Q 275 1666 698 1953 
Q 1122 2241 2028 2241 
L 2688 2241 
L 2688 2328 
Q 2688 2594 2478 2717 
Q 2269 2841 1825 2841 
Q 1466 2841 1156 2769 
Q 847 2697 581 2553 
L 581 3406 
Q 941 3494 1303 3539 
Q 1666 3584 2028 3584 
Q 2975 3584 3395 3211 
Q 3816 2838 3816 1997 
z
" transform="scale(0.015625)"/>
      <path id="DejaVuSans-Bold-65" d="M 4031 1759 
L 4031 1441 
L 1416 1441 
Q 1456 1047 1700 850 
Q 1944 653 2381 653 
Q 2734 653 3104 758 
Q 3475 863 3866 1075 
L 3866 213 
Q 3469 63 3072 -14 
Q 2675 -91 2278 -91 
Q 1328 -91 801 392 
Q 275 875 275 1747 
Q 275 2603 792 3093 
Q 1309 3584 2216 3584 
Q 3041 3584 3536 3087 
Q 4031 2591 4031 1759 
z
M 2881 2131 
Q 2881 2450 2695 2645 
Q 2509 2841 2209 2841 
Q 1884 2841 1681 2658 
Q 1478 2475 1428 2131 
L 2881 2131 
z
" transform="scale(0.015625)"/>
      <path id="DejaVuSans-Bold-64" d="M 2919 2988 
L 2919 4863 
L 4044 4863 
L 4044 0 
L 2919 0 
L 2919 506 
Q 2688 197 2409 53 
Q 2131 -91 1766 -91 
Q 1119 -91 703 423 
Q 288 938 288 1747 
Q 288 2556 703 3070 
Q 1119 3584 1766 3584 
Q 2128 3584 2408 3439 
Q 2688 3294 2919 2988 
z
M 2181 722 
Q 2541 722 2730 984 
Q 2919 1247 2919 1747 
Q 2919 2247 2730 2509 
Q 2541 2772 2181 2772 
Q 1825 2772 1636 2509 
Q 1447 2247 1447 1747 
Q 1447 1247 1636 984 
Q 1825 722 2181 722 
z
" transform="scale(0.015625)"/>
      <path id="DejaVuSans-Bold-79" d="M 78 3500 
L 1197 3500 
L 2138 1125 
L 2938 3500 
L 4056 3500 
L 2584 -331 
Q 2363 -916 2067 -1148 
Q 1772 -1381 1288 -1381 
L 641 -1381 
L 641 -647 
L 991 -647 
Q 1275 -647 1404 -556 
Q 1534 -466 1606 -231 
L 1638 -134 
L 78 3500 
z
" transform="scale(0.015625)"/>
      <path id="DejaVuSans-Bold-63" d="M 3366 3391 
L 3366 2478 
Q 3138 2634 2908 2709 
Q 2678 2784 2431 2784 
Q 1963 2784 1702 2511 
Q 1441 2238 1441 1747 
Q 1441 1256 1702 982 
Q 1963 709 2431 709 
Q 2694 709 2930 787 
Q 3166 866 3366 1019 
L 3366 103 
Q 3103 6 2833 -42 
Q 2563 -91 2291 -91 
Q 1344 -91 809 395 
Q 275 881 275 1747 
Q 275 2613 809 3098 
Q 1344 3584 2291 3584 
Q 2566 3584 2833 3536 
Q 3100 3488 3366 3391 
z
" transform="scale(0.015625)"/>
     </defs>
     <use xlink:href="#DejaVuSans-Bold-53"/>
     <use xlink:href="#DejaVuSans-Bold-68" transform="translate(72.021484 0)"/>
     <use xlink:href="#DejaVuSans-Bold-61" transform="translate(143.212891 0)"/>
     <use xlink:href="#DejaVuSans-Bold-72" transform="translate(210.693359 0)"/>
     <use xlink:href="#DejaVuSans-Bold-65" transform="translate(260.009766 0)"/>
     <use xlink:href="#DejaVuSans-Bold-64" transform="translate(327.832031 0)"/>
     <use xlink:href="#DejaVuSans-Bold-20" transform="translate(399.414062 0)"/>
     <use xlink:href="#DejaVuSans-Bold-70" transform="translate(434.228516 0)"/>
     <use xlink:href="#DejaVuSans-Bold-61" transform="translate(505.810547 0)"/>
     <use xlink:href="#DejaVuSans-Bold-72" transform="translate(573.291016 0)"/>
     <use xlink:href="#DejaVuSans-Bold-69" transform="translate(622.607422 0)"/>
     <use xlink:href="#DejaVuSans-Bold-74" transform="translate(656.884766 0)"/>
     <use xlink:href="#DejaVuSans-Bold-79" transform="translate(704.6875 0)"/>
     <use xlink:href="#DejaVuSans-Bold-20" transform="translate(769.873047 0)"/>
     <use xlink:href="#DejaVuSans-Bold-63" transform="translate(804.6875 0)"/>
     <use xlink:href="#DejaVuSans-Bold-75" transform="translate(863.964844 0)"/>
     <use xlink:href="#DejaVuSans-Bold-65" transform="translate(935.15625 0)"/>
    </g>
   </g>
   <g id="text_10">
    <!-- same fingerprint -->
    <g style="fill: #243247" transform="translate(422.158028 114.510375) scale(0.18 -0.18)">
     <defs>
      <path id="DejaVuSans-6d" d="M 3328 2828 
Q 3544 3216 3844 3400 
Q 4144 3584 4550 3584 
Q 5097 3584 5394 3201 
Q 5691 2819 5691 2113 
L 5691 0 
L 5113 0 
L 5113 2094 
Q 5113 2597 4934 2840 
Q 4756 3084 4391 3084 
Q 3944 3084 3684 2787 
Q 3425 2491 3425 1978 
L 3425 0 
L 2847 0 
L 2847 2094 
Q 2847 2600 2669 2842 
Q 2491 3084 2119 3084 
Q 1678 3084 1418 2786 
Q 1159 2488 1159 1978 
L 1159 0 
L 581 0 
L 581 3500 
L 1159 3500 
L 1159 2956 
Q 1356 3278 1631 3431 
Q 1906 3584 2284 3584 
Q 2666 3584 2933 3390 
Q 3200 3197 3328 2828 
z
" transform="scale(0.015625)"/>
      <path id="DejaVuSans-66" d="M 2375 4863 
L 2375 4384 
L 1825 4384 
Q 1516 4384 1395 4259 
Q 1275 4134 1275 3809 
L 1275 3500 
L 2222 3500 
L 2222 3053 
L 1275 3053 
L 1275 0 
L 697 0 
L 697 3053 
L 147 3053 
L 147 3500 
L 697 3500 
L 697 3744 
Q 697 4328 969 4595 
Q 1241 4863 1831 4863 
L 2375 4863 
z
" transform="scale(0.015625)"/>
     </defs>
     <use xlink:href="#DejaVuSans-73"/>
     <use xlink:href="#DejaVuSans-61" transform="translate(52.099609 0)"/>
     <use xlink:href="#DejaVuSans-6d" transform="translate(113.378906 0)"/>
     <use xlink:href="#DejaVuSans-65" transform="translate(210.791016 0)"/>
     <use xlink:href="#DejaVuSans-20" transform="translate(272.314453 0)"/>
     <use xlink:href="#DejaVuSans-66" transform="translate(304.101562 0)"/>
     <use xlink:href="#DejaVuSans-69" transform="translate(339.306641 0)"/>
     <use xlink:href="#DejaVuSans-6e" transform="translate(367.089844 0)"/>
     <use xlink:href="#DejaVuSans-67" transform="translate(430.46875 0)"/>
     <use xlink:href="#DejaVuSans-65" transform="translate(493.945312 0)"/>
     <use xlink:href="#DejaVuSans-72" transform="translate(555.46875 0)"/>
     <use xlink:href="#DejaVuSans-70" transform="translate(596.582031 0)"/>
     <use xlink:href="#DejaVuSans-72" transform="translate(660.058594 0)"/>
     <use xlink:href="#DejaVuSans-69" transform="translate(701.171875 0)"/>
     <use xlink:href="#DejaVuSans-6e" transform="translate(728.955078 0)"/>
     <use xlink:href="#DejaVuSans-74" transform="translate(792.333984 0)"/>
    </g>
   </g>
   <g id="text_11">
    <!-- 1001 -->
    <g style="fill: #9c2f35" transform="translate(347.053265 158.647812) scale(0.19 -0.19)">
     <use xlink:href="#DejaVuSans-Bold-31"/>
     <use xlink:href="#DejaVuSans-Bold-30" transform="translate(69.580078 0)"/>
     <use xlink:href="#DejaVuSans-Bold-30" transform="translate(139.160156 0)"/>
     <use xlink:href="#DejaVuSans-Bold-31" transform="translate(208.740234 0)"/>
    </g>
   </g>
   <g id="text_12">
    <!-- unseen -->
    <g style="fill: #6c7585" transform="translate(359.751702 171.060812) scale(0.11 -0.11)">
     <use xlink:href="#DejaVuSans-75"/>
     <use xlink:href="#DejaVuSans-6e" transform="translate(63.378906 0)"/>
     <use xlink:href="#DejaVuSans-73" transform="translate(126.757812 0)"/>
     <use xlink:href="#DejaVuSans-65" transform="translate(178.857422 0)"/>
     <use xlink:href="#DejaVuSans-65" transform="translate(240.380859 0)"/>
     <use xlink:href="#DejaVuSans-6e" transform="translate(301.904297 0)"/>
    </g>
   </g>
   <g id="text_13">
    <!-- 1100 -->
    <g style="fill: #243247" transform="translate(351.57764 210.631812) scale(0.19 -0.19)">
     <use xlink:href="#DejaVuSans-31"/>
     <use xlink:href="#DejaVuSans-31" transform="translate(63.623047 0)"/>
     <use xlink:href="#DejaVuSans-30" transform="translate(127.246094 0)"/>
     <use xlink:href="#DejaVuSans-30" transform="translate(190.869141 0)"/>
    </g>
   </g>
   <g id="text_14">
    <!-- seen -->
    <g style="fill: #6c7585" transform="translate(373.694203 223.044812) scale(0.11 -0.11)">
     <use xlink:href="#DejaVuSans-73"/>
     <use xlink:href="#DejaVuSans-65" transform="translate(52.099609 0)"/>
     <use xlink:href="#DejaVuSans-65" transform="translate(113.623047 0)"/>
     <use xlink:href="#DejaVuSans-6e" transform="translate(175.146484 0)"/>
    </g>
   </g>
   <g id="text_15">
    <!-- 1010 -->
    <g style="fill: #6c7585" transform="translate(432.4476 246.06375) scale(0.12 -0.12)">
     <use xlink:href="#DejaVuSans-31"/>
     <use xlink:href="#DejaVuSans-30" transform="translate(63.623047 0)"/>
     <use xlink:href="#DejaVuSans-31" transform="translate(127.246094 0)"/>
     <use xlink:href="#DejaVuSans-30" transform="translate(190.869141 0)"/>
    </g>
   </g>
   <g id="text_16">
    <!-- 0111 -->
    <g style="fill: #6c7585" transform="translate(489.19224 246.06375) scale(0.12 -0.12)">
     <use xlink:href="#DejaVuSans-30"/>
     <use xlink:href="#DejaVuSans-31" transform="translate(63.623047 0)"/>
     <use xlink:href="#DejaVuSans-31" transform="translate(127.246094 0)"/>
     <use xlink:href="#DejaVuSans-31" transform="translate(190.869141 0)"/>
    </g>
   </g>
   <g id="text_17">
    <!-- 1111 -->
    <g style="fill: #6c7585" transform="translate(545.93688 246.06375) scale(0.12 -0.12)">
     <use xlink:href="#DejaVuSans-31"/>
     <use xlink:href="#DejaVuSans-31" transform="translate(63.623047 0)"/>
     <use xlink:href="#DejaVuSans-31" transform="translate(127.246094 0)"/>
     <use xlink:href="#DejaVuSans-31" transform="translate(190.869141 0)"/>
    </g>
   </g>
   <g id="text_18">
    <!-- sampled parity masks $\alpha$ -->
    <g style="fill: #6c7585" transform="translate(432.34224 263.922) scale(0.12 -0.12)">
     <defs>
      <path id="DejaVuSans-6c" d="M 603 4863 
L 1178 4863 
L 1178 0 
L 603 0 
L 603 4863 
z
" transform="scale(0.015625)"/>
      <path id="DejaVuSans-64" d="M 2906 2969 
L 2906 4863 
L 3481 4863 
L 3481 0 
L 2906 0 
L 2906 525 
Q 2725 213 2448 61 
Q 2172 -91 1784 -91 
Q 1150 -91 751 415 
Q 353 922 353 1747 
Q 353 2572 751 3078 
Q 1150 3584 1784 3584 
Q 2172 3584 2448 3432 
Q 2725 3281 2906 2969 
z
M 947 1747 
Q 947 1113 1208 752 
Q 1469 391 1925 391 
Q 2381 391 2643 752 
Q 2906 1113 2906 1747 
Q 2906 2381 2643 2742 
Q 2381 3103 1925 3103 
Q 1469 3103 1208 2742 
Q 947 2381 947 1747 
z
" transform="scale(0.015625)"/>
      <path id="DejaVuSans-79" d="M 2059 -325 
Q 1816 -950 1584 -1140 
Q 1353 -1331 966 -1331 
L 506 -1331 
L 506 -850 
L 844 -850 
Q 1081 -850 1212 -737 
Q 1344 -625 1503 -206 
L 1606 56 
L 191 3500 
L 800 3500 
L 1894 763 
L 2988 3500 
L 3597 3500 
L 2059 -325 
z
" transform="scale(0.015625)"/>
      <path id="DejaVuSans-6b" d="M 581 4863 
L 1159 4863 
L 1159 1991 
L 2875 3500 
L 3609 3500 
L 1753 1863 
L 3688 0 
L 2938 0 
L 1159 1709 
L 1159 0 
L 581 0 
L 581 4863 
z
" transform="scale(0.015625)"/>
      <path id="DejaVuSans-Oblique-3b1" d="M 2619 1628 
L 2622 2350 
Q 2625 3088 2069 3091 
Q 1653 3094 1394 2747 
Q 1069 2319 959 1747 
Q 825 1059 994 731 
Q 1169 397 1547 397 
Q 1966 397 2319 1063 
L 2619 1628 
z
M 2166 3578 
Q 3141 3594 3128 2584 
Q 3128 2584 3616 3500 
L 4128 3500 
L 3119 1603 
L 3109 919 
Q 3109 766 3194 638 
Q 3291 488 3391 488 
L 3669 488 
L 3575 0 
L 3228 0 
Q 2934 0 2722 263 
Q 2622 394 2619 669 
Q 2416 334 2066 50 
Q 1900 -81 1453 -78 
Q 722 -72 456 397 
Q 184 884 353 1747 
Q 534 2675 1009 3097 
Q 1544 3569 2166 3578 
z
" transform="scale(0.015625)"/>
     </defs>
     <use xlink:href="#DejaVuSans-73" transform="translate(0 0.015625)"/>
     <use xlink:href="#DejaVuSans-61" transform="translate(52.099609 0.015625)"/>
     <use xlink:href="#DejaVuSans-6d" transform="translate(113.378906 0.015625)"/>
     <use xlink:href="#DejaVuSans-70" transform="translate(210.791016 0.015625)"/>
     <use xlink:href="#DejaVuSans-6c" transform="translate(274.267578 0.015625)"/>
     <use xlink:href="#DejaVuSans-65" transform="translate(302.050781 0.015625)"/>
     <use xlink:href="#DejaVuSans-64" transform="translate(363.574219 0.015625)"/>
     <use xlink:href="#DejaVuSans-20" transform="translate(427.050781 0.015625)"/>
     <use xlink:href="#DejaVuSans-70" transform="translate(458.837891 0.015625)"/>
     <use xlink:href="#DejaVuSans-61" transform="translate(522.314453 0.015625)"/>
     <use xlink:href="#DejaVuSans-72" transform="translate(583.59375 0.015625)"/>
     <use xlink:href="#DejaVuSans-69" transform="translate(624.707031 0.015625)"/>
     <use xlink:href="#DejaVuSans-74" transform="translate(652.490234 0.015625)"/>
     <use xlink:href="#DejaVuSans-79" transform="translate(691.699219 0.015625)"/>
     <use xlink:href="#DejaVuSans-20" transform="translate(750.878906 0.015625)"/>
     <use xlink:href="#DejaVuSans-6d" transform="translate(782.666016 0.015625)"/>
     <use xlink:href="#DejaVuSans-61" transform="translate(880.078125 0.015625)"/>
     <use xlink:href="#DejaVuSans-73" transform="translate(941.357422 0.015625)"/>
     <use xlink:href="#DejaVuSans-6b" transform="translate(993.457031 0.015625)"/>
     <use xlink:href="#DejaVuSans-73" transform="translate(1051.367188 0.015625)"/>
     <use xlink:href="#DejaVuSans-20" transform="translate(1103.466797 0.015625)"/>
     <use xlink:href="#DejaVuSans-Oblique-3b1" transform="translate(1135.253906 0.015625)"/>
    </g>
   </g>
   <g id="patch_10">
    <path d="M 425.915712 172.899 
L 469.519488 172.899 
Q 473.10336 172.899 473.10336 169.0002 
L 473.10336 147.5568 
Q 473.10336 143.658 469.519488 143.658 
L 425.915712 143.658 
Q 422.33184 143.658 422.33184 147.5568 
L 422.33184 169.0002 
Q 422.33184 172.899 425.915712 172.899 
z
" clip-path="url(#pb458bef0e5)" style="fill: #5c8a74"/>
   </g>
   <g id="patch_11">
    <path d="M 482.660352 172.899 
L 526.264128 172.899 
Q 529.848 172.899 529.848 169.0002 
L 529.848 147.5568 
Q 529.848 143.658 526.264128 143.658 
L 482.660352 143.658 
Q 479.07648 143.658 479.07648 147.5568 
L 479.07648 169.0002 
Q 479.07648 172.899 482.660352 172.899 
z
" clip-path="url(#pb458bef0e5)" style="fill: #5c8a74"/>
   </g>
   <g id="patch_12">
    <path d="M 539.404992 172.899 
L 583.008768 172.899 
Q 586.59264 172.899 586.59264 169.0002 
L 586.59264 147.5568 
Q 586.59264 143.658 583.008768 143.658 
L 539.404992 143.658 
Q 535.82112 143.658 535.82112 147.5568 
L 535.82112 169.0002 
Q 535.82112 172.899 539.404992 172.899 
z
" clip-path="url(#pb458bef0e5)" style="fill: #d7a24a"/>
   </g>
   <g id="patch_13">
    <path d="M 425.915712 224.883 
L 469.519488 224.883 
Q 473.10336 224.883 473.10336 220.9842 
L 473.10336 199.5408 
Q 473.10336 195.642 469.519488 195.642 
L 425.915712 195.642 
Q 422.33184 195.642 422.33184 199.5408 
L 422.33184 220.9842 
Q 422.33184 224.883 425.915712 224.883 
z
" clip-path="url(#pb458bef0e5)" style="fill: #5c8a74"/>
   </g>
   <g id="patch_14">
    <path d="M 482.660352 224.883 
L 526.264128 224.883 
Q 529.848 224.883 529.848 220.9842 
L 529.848 199.5408 
Q 529.848 195.642 526.264128 195.642 
L 482.660352 195.642 
Q 479.07648 195.642 479.07648 199.5408 
L 479.07648 220.9842 
Q 479.07648 224.883 482.660352 224.883 
z
" clip-path="url(#pb458bef0e5)" style="fill: #5c8a74"/>
   </g>
   <g id="patch_15">
    <path d="M 539.404992 224.883 
L 583.008768 224.883 
Q 586.59264 224.883 586.59264 220.9842 
L 586.59264 199.5408 
Q 586.59264 195.642 583.008768 195.642 
L 539.404992 195.642 
Q 535.82112 195.642 535.82112 199.5408 
L 535.82112 220.9842 
Q 535.82112 224.883 539.404992 224.883 
z
" clip-path="url(#pb458bef0e5)" style="fill: #d7a24a"/>
   </g>
   <g id="patch_16">
    <path d="M 414.86544 177.7725 
L 594.05904 177.7725 
L 594.05904 138.7845 
L 414.86544 138.7845 
L 414.86544 177.7725 
z
" clip-path="url(#pb458bef0e5)" style="fill: none; stroke-dasharray: 6.845,2.96; stroke-dashoffset: 0; stroke: #6f7787; stroke-width: 1.85; stroke-linejoin: miter"/>
   </g>
   <g id="patch_17">
    <path d="M 414.86544 229.7565 
L 594.05904 229.7565 
L 594.05904 190.7685 
L 414.86544 190.7685 
L 414.86544 229.7565 
z
" clip-path="url(#pb458bef0e5)" style="fill: none; stroke-dasharray: 6.845,2.96; stroke-dashoffset: 0; stroke: #6f7787; stroke-width: 1.85; stroke-linejoin: miter"/>
   </g>
   <g id="text_19">
    <!-- -1 -->
    <g style="fill: #ffffff" transform="translate(437.720569 163.245375) scale(0.18 -0.18)">
     <defs>
      <path id="DejaVuSans-Bold-2d" d="M 347 2297 
L 2309 2297 
L 2309 1388 
L 347 1388 
L 347 2297 
z
" transform="scale(0.015625)"/>
     </defs>
     <use xlink:href="#DejaVuSans-Bold-2d"/>
     <use xlink:href="#DejaVuSans-Bold-31" transform="translate(41.503906 0)"/>
    </g>
   </g>
   <g id="text_20">
    <!-- -1 -->
    <g style="fill: #ffffff" transform="translate(494.465209 163.245375) scale(0.18 -0.18)">
     <use xlink:href="#DejaVuSans-Bold-2d"/>
     <use xlink:href="#DejaVuSans-Bold-31" transform="translate(41.503906 0)"/>
    </g>
   </g>
   <g id="text_21">
    <!-- +1 -->
    <g style="fill: #ffffff" transform="translate(547.40313 163.245375) scale(0.18 -0.18)">
     <defs>
      <path id="DejaVuSans-Bold-2b" d="M 3053 4013 
L 3053 2375 
L 4684 2375 
L 4684 1638 
L 3053 1638 
L 3053 0 
L 2309 0 
L 2309 1638 
L 678 1638 
L 678 2375 
L 2309 2375 
L 2309 4013 
L 3053 4013 
z
" transform="scale(0.015625)"/>
     </defs>
     <use xlink:href="#DejaVuSans-Bold-2b"/>
     <use xlink:href="#DejaVuSans-Bold-31" transform="translate(83.789062 0)"/>
    </g>
   </g>
   <g id="text_22">
    <!-- -1 -->
    <g style="fill: #ffffff" transform="translate(437.720569 215.229375) scale(0.18 -0.18)">
     <use xlink:href="#DejaVuSans-Bold-2d"/>
     <use xlink:href="#DejaVuSans-Bold-31" transform="translate(41.503906 0)"/>
    </g>
   </g>
   <g id="text_23">
    <!-- -1 -->
    <g style="fill: #ffffff" transform="translate(494.465209 215.229375) scale(0.18 -0.18)">
     <use xlink:href="#DejaVuSans-Bold-2d"/>
     <use xlink:href="#DejaVuSans-Bold-31" transform="translate(41.503906 0)"/>
    </g>
   </g>
   <g id="text_24">
    <!-- +1 -->
    <g style="fill: #ffffff" transform="translate(547.40313 215.229375) scale(0.18 -0.18)">
     <use xlink:href="#DejaVuSans-Bold-2b"/>
     <use xlink:href="#DejaVuSans-Bold-31" transform="translate(83.789062 0)"/>
    </g>
   </g>
  </g>
  <g id="axes_3">
   <g id="patch_18">
    <path d="M 682.16256 309.357 
L 944.97984 309.357 
Q 956.92608 309.357 956.92608 296.361 
L 956.92608 36.441 
Q 956.92608 23.445 944.97984 23.445 
L 682.16256 23.445 
Q 670.21632 23.445 670.21632 36.441 
L 670.21632 296.361 
Q 670.21632 309.357 682.16256 309.357 
z
" clip-path="url(#pf2a39534b7)" style="fill: #fbfbfc; stroke: #c8d0da; stroke-width: 1.35; stroke-linejoin: miter"/>
   </g>
   <g id="text_25">
    <!-- Output behavior -->
    <g style="fill: #243247" transform="translate(716.452762 53.607187) scale(0.21 -0.21)">
     <defs>
      <path id="DejaVuSans-Bold-4f" d="M 2719 3878 
Q 2169 3878 1866 3472 
Q 1563 3066 1563 2328 
Q 1563 1594 1866 1187 
Q 2169 781 2719 781 
Q 3272 781 3575 1187 
Q 3878 1594 3878 2328 
Q 3878 3066 3575 3472 
Q 3272 3878 2719 3878 
z
M 2719 4750 
Q 3844 4750 4481 4106 
Q 5119 3463 5119 2328 
Q 5119 1197 4481 553 
Q 3844 -91 2719 -91 
Q 1597 -91 958 553 
Q 319 1197 319 2328 
Q 319 3463 958 4106 
Q 1597 4750 2719 4750 
z
" transform="scale(0.015625)"/>
      <path id="DejaVuSans-Bold-62" d="M 2400 722 
Q 2759 722 2948 984 
Q 3138 1247 3138 1747 
Q 3138 2247 2948 2509 
Q 2759 2772 2400 2772 
Q 2041 2772 1848 2508 
Q 1656 2244 1656 1747 
Q 1656 1250 1848 986 
Q 2041 722 2400 722 
z
M 1656 2988 
Q 1888 3294 2169 3439 
Q 2450 3584 2816 3584 
Q 3463 3584 3878 3070 
Q 4294 2556 4294 1747 
Q 4294 938 3878 423 
Q 3463 -91 2816 -91 
Q 2450 -91 2169 54 
Q 1888 200 1656 506 
L 1656 0 
L 538 0 
L 538 4863 
L 1656 4863 
L 1656 2988 
z
" transform="scale(0.015625)"/>
      <path id="DejaVuSans-Bold-76" d="M 97 3500 
L 1216 3500 
L 2088 1081 
L 2956 3500 
L 4078 3500 
L 2700 0 
L 1472 0 
L 97 3500 
z
" transform="scale(0.015625)"/>
     </defs>
     <use xlink:href="#DejaVuSans-Bold-4f"/>
     <use xlink:href="#DejaVuSans-Bold-75" transform="translate(85.009766 0)"/>
     <use xlink:href="#DejaVuSans-Bold-74" transform="translate(156.201172 0)"/>
     <use xlink:href="#DejaVuSans-Bold-70" transform="translate(204.003906 0)"/>
     <use xlink:href="#DejaVuSans-Bold-75" transform="translate(275.585938 0)"/>
     <use xlink:href="#DejaVuSans-Bold-74" transform="translate(346.777344 0)"/>
     <use xlink:href="#DejaVuSans-Bold-20" transform="translate(394.580078 0)"/>
     <use xlink:href="#DejaVuSans-Bold-62" transform="translate(429.394531 0)"/>
     <use xlink:href="#DejaVuSans-Bold-65" transform="translate(500.976562 0)"/>
     <use xlink:href="#DejaVuSans-Bold-68" transform="translate(568.798828 0)"/>
     <use xlink:href="#DejaVuSans-Bold-61" transform="translate(639.990234 0)"/>
     <use xlink:href="#DejaVuSans-Bold-76" transform="translate(707.470703 0)"/>
     <use xlink:href="#DejaVuSans-Bold-69" transform="translate(772.65625 0)"/>
     <use xlink:href="#DejaVuSans-Bold-6f" transform="translate(806.933594 0)"/>
     <use xlink:href="#DejaVuSans-Bold-72" transform="translate(875.634766 0)"/>
    </g>
   </g>
   <g id="text_26">
    <!-- IQP-MSE -->
    <g style="fill: #243247" transform="translate(711.656917 89.728969) scale(0.165 -0.165)">
     <defs>
      <path id="DejaVuSans-Bold-49" d="M 588 4666 
L 1791 4666 
L 1791 0 
L 588 0 
L 588 4666 
z
" transform="scale(0.015625)"/>
      <path id="DejaVuSans-Bold-51" d="M 2847 -84 
L 2753 -84 
Q 1600 -84 959 553 
Q 319 1191 319 2328 
Q 319 3463 958 4106 
Q 1597 4750 2719 4750 
Q 3853 4750 4486 4112 
Q 5119 3475 5119 2328 
Q 5119 1541 4783 972 
Q 4447 403 3816 116 
L 4756 -934 
L 3609 -934 
L 2847 -84 
z
M 2719 3878 
Q 2169 3878 1866 3472 
Q 1563 3066 1563 2328 
Q 1563 1578 1859 1179 
Q 2156 781 2719 781 
Q 3272 781 3575 1187 
Q 3878 1594 3878 2328 
Q 3878 3066 3575 3472 
Q 3272 3878 2719 3878 
z
" transform="scale(0.015625)"/>
      <path id="DejaVuSans-Bold-50" d="M 588 4666 
L 2584 4666 
Q 3475 4666 3951 4270 
Q 4428 3875 4428 3144 
Q 4428 2409 3951 2014 
Q 3475 1619 2584 1619 
L 1791 1619 
L 1791 0 
L 588 0 
L 588 4666 
z
M 1791 3794 
L 1791 2491 
L 2456 2491 
Q 2806 2491 2997 2661 
Q 3188 2831 3188 3144 
Q 3188 3456 2997 3625 
Q 2806 3794 2456 3794 
L 1791 3794 
z
" transform="scale(0.015625)"/>
      <path id="DejaVuSans-Bold-45" d="M 588 4666 
L 3834 4666 
L 3834 3756 
L 1791 3756 
L 1791 2888 
L 3713 2888 
L 3713 1978 
L 1791 1978 
L 1791 909 
L 3903 909 
L 3903 0 
L 588 0 
L 588 4666 
z
" transform="scale(0.015625)"/>
     </defs>
     <use xlink:href="#DejaVuSans-Bold-49"/>
     <use xlink:href="#DejaVuSans-Bold-51" transform="translate(37.207031 0)"/>
     <use xlink:href="#DejaVuSans-Bold-50" transform="translate(122.216797 0)"/>
     <use xlink:href="#DejaVuSans-Bold-2d" transform="translate(193.757812 0)"/>
     <use xlink:href="#DejaVuSans-Bold-4d" transform="translate(235.261719 0)"/>
     <use xlink:href="#DejaVuSans-Bold-53" transform="translate(334.773438 0)"/>
     <use xlink:href="#DejaVuSans-Bold-45" transform="translate(406.794922 0)"/>
    </g>
   </g>
   <g id="text_27">
    <!-- IQP-Parity -->
    <g style="fill: #243247" transform="translate(841.2102 89.664516) scale(0.165 -0.165)">
     <use xlink:href="#DejaVuSans-Bold-49"/>
     <use xlink:href="#DejaVuSans-Bold-51" transform="translate(37.207031 0)"/>
     <use xlink:href="#DejaVuSans-Bold-50" transform="translate(122.216797 0)"/>
     <use xlink:href="#DejaVuSans-Bold-2d" transform="translate(193.757812 0)"/>
     <use xlink:href="#DejaVuSans-Bold-50" transform="translate(235.261719 0)"/>
     <use xlink:href="#DejaVuSans-Bold-61" transform="translate(305.927734 0)"/>
     <use xlink:href="#DejaVuSans-Bold-72" transform="translate(373.408203 0)"/>
     <use xlink:href="#DejaVuSans-Bold-69" transform="translate(422.724609 0)"/>
     <use xlink:href="#DejaVuSans-Bold-74" transform="translate(457.001953 0)"/>
     <use xlink:href="#DejaVuSans-Bold-79" transform="translate(504.804688 0)"/>
    </g>
   </g>
   <g id="text_28">
    <!-- target -->
    <g style="fill: #243247" transform="translate(701.5752 107.586019) scale(0.141 -0.141)">
     <use xlink:href="#DejaVuSans-74"/>
     <use xlink:href="#DejaVuSans-61" transform="translate(39.208984 0)"/>
     <use xlink:href="#DejaVuSans-72" transform="translate(100.488281 0)"/>
     <use xlink:href="#DejaVuSans-67" transform="translate(139.851562 0)"/>
     <use xlink:href="#DejaVuSans-65" transform="translate(203.328125 0)"/>
     <use xlink:href="#DejaVuSans-74" transform="translate(264.851562 0)"/>
    </g>
   </g>
   <g id="text_29">
    <!-- MSE mass -->
    <g style="fill: #243247" transform="translate(774.74592 107.586019) scale(0.141 -0.141)">
     <defs>
      <path id="DejaVuSans-4d" d="M 628 4666 
L 1569 4666 
L 2759 1491 
L 3956 4666 
L 4897 4666 
L 4897 0 
L 4281 0 
L 4281 4097 
L 3078 897 
L 2444 897 
L 1241 4097 
L 1241 0 
L 628 0 
L 628 4666 
z
" transform="scale(0.015625)"/>
      <path id="DejaVuSans-53" d="M 3425 4513 
L 3425 3897 
Q 3066 4069 2747 4153 
Q 2428 4238 2131 4238 
Q 1616 4238 1336 4038 
Q 1056 3838 1056 3469 
Q 1056 3159 1242 3001 
Q 1428 2844 1947 2747 
L 2328 2669 
Q 3034 2534 3370 2195 
Q 3706 1856 3706 1288 
Q 3706 609 3251 259 
Q 2797 -91 1919 -91 
Q 1588 -91 1214 -16 
Q 841 59 441 206 
L 441 856 
Q 825 641 1194 531 
Q 1563 422 1919 422 
Q 2459 422 2753 634 
Q 3047 847 3047 1241 
Q 3047 1584 2836 1778 
Q 2625 1972 2144 2069 
L 1759 2144 
Q 1053 2284 737 2584 
Q 422 2884 422 3419 
Q 422 4038 858 4394 
Q 1294 4750 2059 4750 
Q 2388 4750 2728 4690 
Q 3069 4631 3425 4513 
z
" transform="scale(0.015625)"/>
      <path id="DejaVuSans-45" d="M 628 4666 
L 3578 4666 
L 3578 4134 
L 1259 4134 
L 1259 2753 
L 3481 2753 
L 3481 2222 
L 1259 2222 
L 1259 531 
L 3634 531 
L 3634 0 
L 628 0 
L 628 4666 
z
" transform="scale(0.015625)"/>
     </defs>
     <use xlink:href="#DejaVuSans-4d"/>
     <use xlink:href="#DejaVuSans-53" transform="translate(86.279297 0)"/>
     <use xlink:href="#DejaVuSans-45" transform="translate(149.755859 0)"/>
     <use xlink:href="#DejaVuSans-20" transform="translate(212.939453 0)"/>
     <use xlink:href="#DejaVuSans-6d" transform="translate(244.726562 0)"/>
     <use xlink:href="#DejaVuSans-61" transform="translate(342.138672 0)"/>
     <use xlink:href="#DejaVuSans-73" transform="translate(403.417969 0)"/>
     <use xlink:href="#DejaVuSans-73" transform="translate(455.517578 0)"/>
    </g>
   </g>
   <g id="text_30">
    <!-- Parity mass -->
    <g style="fill: #243247" transform="translate(873.3024 107.586019) scale(0.141 -0.141)">
     <defs>
      <path id="DejaVuSans-50" d="M 1259 4147 
L 1259 2394 
L 2053 2394 
Q 2494 2394 2734 2622 
Q 2975 2850 2975 3272 
Q 2975 3691 2734 3919 
Q 2494 4147 2053 4147 
L 1259 4147 
z
M 628 4666 
L 2053 4666 
Q 2838 4666 3239 4311 
Q 3641 3956 3641 3272 
Q 3641 2581 3239 2228 
Q 2838 1875 2053 1875 
L 1259 1875 
L 1259 0 
L 628 0 
L 628 4666 
z
" transform="scale(0.015625)"/>
     </defs>
     <use xlink:href="#DejaVuSans-50"/>
     <use xlink:href="#DejaVuSans-61" transform="translate(55.802734 0)"/>
     <use xlink:href="#DejaVuSans-72" transform="translate(117.082031 0)"/>
     <use xlink:href="#DejaVuSans-69" transform="translate(158.195312 0)"/>
     <use xlink:href="#DejaVuSans-74" transform="translate(185.978516 0)"/>
     <use xlink:href="#DejaVuSans-79" transform="translate(225.1875 0)"/>
     <use xlink:href="#DejaVuSans-20" transform="translate(284.367188 0)"/>
     <use xlink:href="#DejaVuSans-6d" transform="translate(316.154297 0)"/>
     <use xlink:href="#DejaVuSans-61" transform="translate(413.566406 0)"/>
     <use xlink:href="#DejaVuSans-73" transform="translate(474.845703 0)"/>
     <use xlink:href="#DejaVuSans-73" transform="translate(526.945312 0)"/>
    </g>
   </g>
   <g id="text_31">
    <!-- 1001 -->
    <g style="fill: #9c2f35" transform="translate(695.939715 263.964375) scale(0.18 -0.18)">
     <use xlink:href="#DejaVuSans-Bold-31"/>
     <use xlink:href="#DejaVuSans-Bold-30" transform="translate(69.580078 0)"/>
     <use xlink:href="#DejaVuSans-Bold-30" transform="translate(139.160156 0)"/>
     <use xlink:href="#DejaVuSans-Bold-31" transform="translate(208.740234 0)"/>
    </g>
   </g>
   <g id="text_32">
    <!-- 1100 -->
    <g style="fill: #243247" transform="translate(757.81404 263.964375) scale(0.18 -0.18)">
     <use xlink:href="#DejaVuSans-31"/>
     <use xlink:href="#DejaVuSans-31" transform="translate(63.623047 0)"/>
     <use xlink:href="#DejaVuSans-30" transform="translate(127.246094 0)"/>
     <use xlink:href="#DejaVuSans-30" transform="translate(190.869141 0)"/>
    </g>
   </g>
   <g id="text_33">
    <!-- 1001 -->
    <g style="fill: #9c2f35" transform="translate(833.321475 263.964375) scale(0.18 -0.18)">
     <use xlink:href="#DejaVuSans-Bold-31"/>
     <use xlink:href="#DejaVuSans-Bold-30" transform="translate(69.580078 0)"/>
     <use xlink:href="#DejaVuSans-Bold-30" transform="translate(139.160156 0)"/>
     <use xlink:href="#DejaVuSans-Bold-31" transform="translate(208.740234 0)"/>
    </g>
   </g>
   <g id="text_34">
    <!-- 1100 -->
    <g style="fill: #243247" transform="translate(895.1958 263.964375) scale(0.18 -0.18)">
     <use xlink:href="#DejaVuSans-31"/>
     <use xlink:href="#DejaVuSans-31" transform="translate(63.623047 0)"/>
     <use xlink:href="#DejaVuSans-30" transform="translate(127.246094 0)"/>
     <use xlink:href="#DejaVuSans-30" transform="translate(190.869141 0)"/>
    </g>
   </g>
   <g id="text_35">
    <!-- Parity-aware fitting -->
    <g style="fill: #243247" transform="translate(744.606708 288.58213) scale(0.145 -0.145)">
     <defs>
      <path id="DejaVuSans-2d" d="M 313 2009 
L 1997 2009 
L 1997 1497 
L 313 1497 
L 313 2009 
z
" transform="scale(0.015625)"/>
      <path id="DejaVuSans-77" d="M 269 3500 
L 844 3500 
L 1563 769 
L 2278 3500 
L 2956 3500 
L 3675 769 
L 4391 3500 
L 4966 3500 
L 4050 0 
L 3372 0 
L 2619 2869 
L 1863 0 
L 1184 0 
L 269 3500 
z
" transform="scale(0.015625)"/>
     </defs>
     <use xlink:href="#DejaVuSans-50"/>
     <use xlink:href="#DejaVuSans-61" transform="translate(55.802734 0)"/>
     <use xlink:href="#DejaVuSans-72" transform="translate(117.082031 0)"/>
     <use xlink:href="#DejaVuSans-69" transform="translate(158.195312 0)"/>
     <use xlink:href="#DejaVuSans-74" transform="translate(185.978516 0)"/>
     <use xlink:href="#DejaVuSans-79" transform="translate(225.1875 0)"/>
     <use xlink:href="#DejaVuSans-2d" transform="translate(282.617188 0)"/>
     <use xlink:href="#DejaVuSans-61" transform="translate(318.701172 0)"/>
     <use xlink:href="#DejaVuSans-77" transform="translate(379.980469 0)"/>
     <use xlink:href="#DejaVuSans-61" transform="translate(461.767578 0)"/>
     <use xlink:href="#DejaVuSans-72" transform="translate(523.046875 0)"/>
     <use xlink:href="#DejaVuSans-65" transform="translate(561.910156 0)"/>
     <use xlink:href="#DejaVuSans-20" transform="translate(623.433594 0)"/>
     <use xlink:href="#DejaVuSans-66" transform="translate(655.220703 0)"/>
     <use xlink:href="#DejaVuSans-69" transform="translate(690.425781 0)"/>
     <use xlink:href="#DejaVuSans-74" transform="translate(718.208984 0)"/>
     <use xlink:href="#DejaVuSans-74" transform="translate(757.417969 0)"/>
     <use xlink:href="#DejaVuSans-69" transform="translate(796.626953 0)"/>
     <use xlink:href="#DejaVuSans-6e" transform="translate(824.410156 0)"/>
     <use xlink:href="#DejaVuSans-67" transform="translate(887.789062 0)"/>
    </g>
    <!-- restores mass on 1001 -->
    <g style="fill: #243247" transform="translate(730.729755 302.395057) scale(0.145 -0.145)">
     <use xlink:href="#DejaVuSans-72"/>
     <use xlink:href="#DejaVuSans-65" transform="translate(38.863281 0)"/>
     <use xlink:href="#DejaVuSans-73" transform="translate(100.386719 0)"/>
     <use xlink:href="#DejaVuSans-74" transform="translate(152.486328 0)"/>
     <use xlink:href="#DejaVuSans-6f" transform="translate(191.695312 0)"/>
     <use xlink:href="#DejaVuSans-72" transform="translate(252.876953 0)"/>
     <use xlink:href="#DejaVuSans-65" transform="translate(291.740234 0)"/>
     <use xlink:href="#DejaVuSans-73" transform="translate(353.263672 0)"/>
     <use xlink:href="#DejaVuSans-20" transform="translate(405.363281 0)"/>
     <use xlink:href="#DejaVuSans-6d" transform="translate(437.150391 0)"/>
     <use xlink:href="#DejaVuSans-61" transform="translate(534.5625 0)"/>
     <use xlink:href="#DejaVuSans-73" transform="translate(595.841797 0)"/>
     <use xlink:href="#DejaVuSans-73" transform="translate(647.941406 0)"/>
     <use xlink:href="#DejaVuSans-20" transform="translate(700.041016 0)"/>
     <use xlink:href="#DejaVuSans-6f" transform="translate(731.828125 0)"/>
     <use xlink:href="#DejaVuSans-6e" transform="translate(793.009766 0)"/>
     <use xlink:href="#DejaVuSans-20" transform="translate(856.388672 0)"/>
     <use xlink:href="#DejaVuSans-31" transform="translate(888.175781 0)"/>
     <use xlink:href="#DejaVuSans-30" transform="translate(951.798828 0)"/>
     <use xlink:href="#DejaVuSans-30" transform="translate(1015.421875 0)"/>
     <use xlink:href="#DejaVuSans-31" transform="translate(1079.044922 0)"/>
    </g>
   </g>
   <g id="patch_19">
    <path d="M 753.84 108.5688 
L 771.162048 108.5688 
L 771.162048 98.8218 
L 753.84 98.8218 
z
" clip-path="url(#pf2a39534b7)" style="fill: #5b9be6; stroke: #4b7cc0; stroke-width: 1.5; stroke-linejoin: miter"/>
   </g>
   <g id="patch_20">
    <path d="M 852.39648 108.5688 
L 869.718528 108.5688 
L 869.718528 98.8218 
L 852.39648 98.8218 
z
" clip-path="url(#pf2a39534b7)" style="fill: #e46c5b; stroke: #b45246; stroke-width: 1.5; stroke-linejoin: miter"/>
   </g>
   <g id="patch_21">
    <path d="M 722.48112 221.634 
L 746.3736 221.634 
L 746.3736 219.3597 
L 722.48112 219.3597 
z
" clip-path="url(#pf2a39534b7)" style="fill: #5b9be6; stroke: #4b7cc0; stroke-width: 1.2; stroke-linejoin: miter"/>
   </g>
   <g id="patch_22">
    <path d="M 782.21232 221.634 
L 806.1048 221.634 
L 806.1048 133.911 
L 782.21232 133.911 
z
" clip-path="url(#pf2a39534b7)" style="fill: #5b9be6; stroke: #4b7cc0; stroke-width: 2.45; stroke-linejoin: miter"/>
   </g>
   <g id="patch_23">
    <path d="M 859.86288 221.634 
L 883.75536 221.634 
L 883.75536 177.7725 
L 859.86288 177.7725 
z
" clip-path="url(#pf2a39534b7)" style="fill: #e46c5b; stroke: #b45246; stroke-width: 2.45; stroke-linejoin: miter"/>
   </g>
   <g id="patch_24">
    <path d="M 919.59408 221.634 
L 943.48656 221.634 
L 943.48656 177.7725 
L 919.59408 177.7725 
z
" clip-path="url(#pf2a39534b7)" style="fill: #e46c5b; stroke: #b45246; stroke-width: 2.45; stroke-linejoin: miter"/>
   </g>
   <g id="patch_25">
    <path d="M 680.66928 108.5688 
L 697.991328 108.5688 
L 697.991328 98.8218 
L 680.66928 98.8218 
L 680.66928 108.5688 
z
" clip-path="url(#pf2a39534b7)" style="fill: none; stroke: #252525; stroke-width: 2; stroke-linejoin: miter"/>
   </g>
   <g id="patch_26">
    <path d="M 695.60208 221.634 
L 719.49456 221.634 
L 719.49456 133.911 
L 695.60208 133.911 
L 695.60208 221.634 
z
" clip-path="url(#pf2a39534b7)" style="fill: none; stroke: #252525; stroke-width: 2.45; stroke-linejoin: miter"/>
   </g>
   <g id="patch_27">
    <path d="M 755.33328 221.634 
L 779.22576 221.634 
L 779.22576 133.911 
L 755.33328 133.911 
L 755.33328 221.634 
z
" clip-path="url(#pf2a39534b7)" style="fill: none; stroke: #252525; stroke-width: 2.45; stroke-linejoin: miter"/>
   </g>
   <g id="patch_28">
    <path d="M 832.98384 221.634 
L 856.87632 221.634 
L 856.87632 133.911 
L 832.98384 133.911 
L 832.98384 221.634 
z
" clip-path="url(#pf2a39534b7)" style="fill: none; stroke: #252525; stroke-width: 2.45; stroke-linejoin: miter"/>
   </g>
   <g id="patch_29">
    <path d="M 892.71504 221.634 
L 916.60752 221.634 
L 916.60752 133.911 
L 892.71504 133.911 
L 892.71504 221.634 
z
" clip-path="url(#pf2a39534b7)" style="fill: none; stroke: #252525; stroke-width: 2.45; stroke-linejoin: miter"/>
   </g>
  </g>
 </g>
 <defs>
  <clipPath id="pc34585f269">
   <rect x="7.2" y="7.2" width="298.656" height="324.9"/>
  </clipPath>
  <clipPath id="pb458bef0e5">
   <rect x="335.7216" y="7.2" width="298.656" height="324.9"/>
  </clipPath>
  <clipPath id="pf2a39534b7">
   <rect x="664.2432" y="7.2" width="298.656" height="324.9"/>
  </clipPath>
 </defs>
</svg>
